<svg xmlns="http://www.w3.org/2000/svg" viewBox="0 0 512 512">
  <defs>
    <radialGradient id="bg" cx="50%" cy="34%" r="70%">
      <stop offset="0%" stop-color="#252525"/>
      <stop offset="58%" stop-color="#050505"/>
      <stop offset="100%" stop-color="#000"/>
    </radialGradient>
    <linearGradient id="topW" x1="0" y1="0" x2="1" y2="1">
      <stop offset="0%" stop-color="#fffdf4"/>
      <stop offset="100%" stop-color="#c9c4b4"/>
    </linearGradient>
    <linearGradient id="leftB" x1="0" y1="0" x2="1" y2="1">
      <stop offset="0%" stop-color="#2f92ff"/>
      <stop offset="100%" stop-color="#084aaf"/>
    </linearGradient>
    <linearGradient id="rightG" x1="0" y1="0" x2="1" y2="1">
      <stop offset="0%" stop-color="#30d77c"/>
      <stop offset="100%" stop-color="#0e7f42"/>
    </linearGradient>
    <filter id="shadow" x="-30%" y="-20%" width="160%" height="160%">
      <feDropShadow dx="0" dy="26" stdDeviation="24" flood-color="#000" flood-opacity=".65"/>
    </filter>
  </defs>

  <rect width="512" height="512" rx="112" fill="url(#bg)"/>
  <circle cx="256" cy="245" r="176" fill="none" stroke="#ffffff" stroke-opacity=".08" stroke-width="2"/>

  <g filter="url(#shadow)" stroke="#090909" stroke-width="10" stroke-linejoin="round">
    <path d="M256 78 404 164 256 250 108 164Z" fill="#151515"/>
    <path d="M108 164 256 250v184L108 348Z" fill="#101010"/>
    <path d="M404 164 256 250v184l148-86Z" fill="#131313"/>

    <g stroke-width="8">
      <path d="M256 96 373 164 256 232 139 164Z" fill="url(#topW)"/>
      <path d="M126 186 243 254v146L126 332Z" fill="url(#leftB)"/>
      <path d="M386 186 269 254v146l117-68Z" fill="url(#rightG)"/>
    </g>

    <g stroke="#090909" stroke-width="7" stroke-linecap="round" opacity=".92">
      <path d="m178 141 117 68"/>
      <path d="m217 119 117 68"/>
      <path d="M256 96v136"/>
      <path d="M139 164h234"/>

      <path d="m165 209 117 68"/>
      <path d="m165 256 117 68"/>
      <path d="M204 232v146"/>
      <path d="M126 283l117 68"/>

      <path d="m347 209-117 68"/>
      <path d="m347 256-117 68"/>
      <path d="M308 232v146"/>
      <path d="m386 283-117 68"/>
    </g>

    <path d="M256 96 373 164 256 232 139 164Z" fill="none" stroke="#fff" stroke-opacity=".22" stroke-width="3"/>
    <path d="M126 186 243 254v146L126 332Z" fill="none" stroke="#74b9ff" stroke-opacity=".22" stroke-width="3"/>
    <path d="M386 186 269 254v146l117-68Z" fill="none" stroke="#68ffaf" stroke-opacity=".2" stroke-width="3"/>
  </g>

  <path d="M168 426c50 26 126 30 180 2" fill="none" stroke="#fff" stroke-opacity=".08" stroke-width="10" stroke-linecap="round"/>
</svg>
